<svg xmlns="http://www.w3.org/2000/svg" xml:space="preserve" width="2000" height="107" viewBox="0 0 2000 107" data-version="1" data-id="lg_e3YgSFQjjBXxnlKBrD"><g id="outer-wrapper" data-padding="20" transform="matrix(1,0,0,1,0,0)"><g id="inner-wrapper" transform="matrix(0.9640933572710951,0,0,0.9640933572710951,10,1.9210053859964091)"><rect width="201.727" height="201.727" x="1077.662355433751" y="-754.6370849056603" fill="#af47e8" rx="13" ry="13" transform="matrix(.53 0 0 .53 177.46 400)"></rect><rect width="435.847" height="55.37" x="406.6949683798882" y="-374.184735" fill="none" rx="0" ry="0" transform="translate(462.58 384.66)"></rect><path fill="#76309b" d="M891.3589683798882 53.530264999999986Q887.0489683798882 53.530264999999986 883.4689683798882 52.09026499999999Q879.8989683798882 50.640265 877.3189683798881 48.00026500000001Q874.7489683798882 45.350265000000036 873.3089683798881 41.770264999999995Q871.8589683798882 38.200265 871.8589683798882 33.88026500000001Q871.8589683798882 29.620265000000018 873.3089683798881 26.040265000000034Q874.7489683798882 22.47026500000004 877.3189683798881 19.820265000000006Q879.8989683798882 17.18026500000002 883.4689683798882 15.730265000000031Q887.0489683798882 14.280265000000043 891.3589683798882 14.280265000000043Q895.6189683798882 14.280265000000043 899.1989683798881 15.730265000000031T905.3789683798882 19.820265000000006Q907.9689683798881 22.470264999999984 909.4189683798882 26.040265000000034Q910.8589683798882 29.620265000000018 910.8589683798882 33.88026500000001Q910.8589683798882 38.200265 909.4189683798882 41.770264999999995Q907.9689683798882 45.35026499999998 905.3789683798882 48.00026500000001Q902.7789683798882 50.640265 899.1989683798881 52.09026499999999Q895.6189683798882 53.530264999999986 891.3589683798882 53.530264999999986M891.3589683798882 49.320265000000006Q894.6389683798882 49.320265000000006 897.3889683798882 48.140265Q900.1289683798882 46.97026499999998 902.1689683798882 44.88026500000001Q904.1989683798881 42.800265000000024 905.2989683798882 39.98026500000003Q906.3989683798882 37.17026500000003 906.3989683798882 33.88026500000001Q906.3989683798882 30.600265000000036 905.2989683798882 27.810265000000015T902.1689683798882 22.910265000000038Q900.1289683798881 20.800265000000024 897.3889683798882 19.650265000000047Q894.6389683798882 18.50026500000007 891.3589683798882 18.50026500000007T885.3289683798882 19.650265000000047Q882.5889683798882 20.800265000000024 880.5789683798882 22.910265000000038T877.4489683798882 27.810265000000015Q876.3189683798882 30.600265000000036 876.3189683798882 33.88026500000001Q876.3189683798882 37.17026500000003 877.4489683798882 39.98026500000003Q878.5689683798882 42.800265000000024 880.5789683798882 44.88026500000001Q882.5889683798882 46.97026499999998 885.3289683798882 48.140265Q888.0789683798882 49.320265000000006 891.3589683798882 49.320265000000006M921.0989683798882 53.050265000000024Q920.1189683798882 53.050265000000024 919.4589683798882 52.390265T918.7989683798882 50.75026500000001V17.090265000000045Q918.7989683798882 16.060265000000072 919.4589683798882 15.420265000000029T921.0989683798882 14.780265000000043H930.0689683798882Q933.6989683798882 14.780265000000043 936.5189683798882 16.300265000000024Q939.3289683798882 17.820265000000006 940.9289683798883 20.52026500000005Q942.5189683798882 23.21026500000005 942.5189683798882 26.74026500000008Q942.5189683798882 30.070265000000063 940.9289683798883 32.670265000000086Q939.3289683798882 35.27026500000011 936.5189683798882 36.74026500000008Q933.6989683798882 38.210265000000106 930.0689683798882 38.210265000000106H923.4089683798882V50.75026500000013Q923.4089683798882 51.730265000000145 922.7689683798882 52.39026500000011T921.0989683798882 53.05026500000014M941.4889683798882 53.05026500000014Q940.8489683798882 53.05026500000014 940.3589683798882 52.780265000000156T939.4789683798882 51.930265000000134L930.4589683798882 37.42026500000014L934.9689683798882 36.15026500000016L943.2989683798882 49.530265000000156Q944.1289683798882 50.85026500000015 943.5489683798882 51.95026500000017Q942.9589683798882 53.050265000000195 941.4889683798882 53.050265000000195M923.4089683798882 19.100265000000206V33.89026500000023H930.0689683798882Q932.4189683798883 33.89026500000023 934.2089683798882 32.99026500000025Q935.9989683798882 32.080265000000225 937.0289683798882 30.440265000000238T938.0589683798881 26.74026500000025Q938.0589683798881 24.49026500000025 937.0289683798882 22.75026500000024T934.2089683798882 20.050265000000252Q932.4189683798882 19.100265000000263 930.0689683798882 19.100265000000263ZM960.6989683798882 53.050265000000195H951.8289683798882Q950.8489683798882 53.050265000000195 950.1889683798883 52.39026500000017Q949.5189683798882 51.730265000000145 949.5189683798882 50.750265000000184V17.09026500000016Q949.5189683798882 16.060265000000186 950.1889683798883 15.420265000000143Q950.8489683798882 14.780265000000156 951.8289683798882 14.780265000000156H960.6989683798882Q964.9089683798882 14.780265000000156 968.3689683798882 16.180265000000134Q971.8189683798882 17.58026500000011 974.3689683798882 20.15026500000016T978.3089683798883 26.200265000000172Q979.7089683798882 29.68026500000019 979.7089683798882 33.89026500000017Q979.7089683798882 38.1102650000002 978.3089683798883 41.6102650000002Q976.9189683798883 45.12026500000019 974.3689683798882 47.69026500000018T968.3689683798882 51.66026500000021Q964.9089683798883 53.050265000000195 960.6989683798882 53.050265000000195M954.1289683798882 18.900265000000218V48.94026500000024H960.6989683798882Q964.9589683798882 48.94026500000024 968.2189683798882 47.00026500000024Q971.4789683798882 45.070265000000234 973.3589683798882 41.660265000000265Q975.2489683798882 38.26026500000029 975.2489683798882 33.890265000000284Q975.2489683798882 29.48026500000026 973.3589683798882 26.100265000000263Q971.4789683798882 22.720265000000268 968.2189683798882 20.810265000000243T960.6989683798882 18.900265000000218ZM1012.4389683798883 53.050265000000195H989.9489683798882Q988.9689683798882 53.050265000000195 988.3089683798883 52.39026500000017T987.6489683798882 50.750265000000184V17.09026500000016Q987.6489683798882 16.060265000000186 988.3089683798883 15.420265000000143T989.9489683798882 14.780265000000156H1012.4389683798883Q1013.4189683798883 14.780265000000156 1014.0589683798883 15.40026500000016Q1014.6889683798883 16.010265000000174 1014.6889683798883 16.990265000000136Q1014.6889683798883 17.87026500000013 1014.0589683798883 18.480265000000145Q1013.4189683798883 19.10026500000015 1012.4389683798883 19.10026500000015H992.2489683798882V31.64026500000017H1006.8089683798883Q1007.8289683798882 31.64026500000017 1008.4489683798882 32.250265000000184Q1009.0589683798883 32.87026500000019 1009.0589683798883 33.800265000000195T1008.4489683798882 35.340265000000215Q1007.8289683798882 35.95026500000023 1006.8089683798883 35.95026500000023H992.2489683798882V48.74026500000025H1012.4389683798883Q1013.4189683798883 48.74026500000025 1014.0589683798883 49.35026500000026Q1014.6889683798883 49.97026500000027 1014.6889683798883 50.85026500000026Q1014.6889683798883 51.83026500000028 1014.0589683798883 52.44026500000024Q1013.4189683798883 53.05026500000025 1012.4389683798883 53.05026500000025M1024.0989683798884 53.05026500000025Q1023.1189683798882 53.05026500000025 1022.4589683798882 52.39026500000023T1021.7989683798883 50.75026500000024V17.090265000000272Q1021.7989683798883 16.0602650000003 1022.4589683798882 15.420265000000256T1024.0989683798884 14.78026500000027H1033.0689683798882Q1036.6989683798884 14.78026500000027 1039.5089683798883 16.300265000000252Q1042.3289683798885 17.820265000000234 1043.9189683798882 20.52026500000028Q1045.5189683798885 23.210265000000277 1045.5189683798885 26.740265000000306Q1045.5189683798885 30.07026500000029 1043.9189683798882 32.67026500000031Q1042.3289683798885 35.270265000000336 1039.5089683798883 36.740265000000306Q1036.6989683798884 38.210265000000334 1033.0689683798882 38.210265000000334H1026.4089683798884V50.750265000000354Q1026.4089683798884 51.73026500000037 1025.7689683798885 52.39026500000034T1024.0989683798884 53.050265000000365M1044.4889683798883 53.050265000000365Q1043.8489683798884 53.050265000000365 1043.3589683798882 52.780265000000384T1042.478968379888 51.93026500000036L1033.4589683798881 37.42026500000037L1037.9689683798883 36.15026500000039L1046.2989683798883 49.530265000000384Q1047.1289683798882 50.85026500000038 1046.5389683798885 51.9502650000004Q1045.9589683798881 53.05026500000042 1044.4889683798883 53.05026500000042M1026.4089683798884 19.100265000000434V33.890265000000454H1033.0689683798882Q1035.4189683798882 33.890265000000454 1037.2089683798881 32.99026500000048Q1038.9989683798885 32.08026500000045 1040.0289683798883 30.440265000000466T1041.0589683798885 26.740265000000477Q1041.0589683798885 24.490265000000477 1040.0289683798883 22.750265000000468T1037.2089683798881 20.05026500000048Q1035.4189683798882 19.10026500000049 1033.0689683798882 19.10026500000049ZM1069.1889683798881 53.05026500000042Q1068.2089683798881 53.05026500000042 1067.5489683798883 52.3902650000004T1066.8889683798884 50.75026500000041V17.090265000000386Q1066.8889683798884 16.060265000000413 1067.5489683798883 15.42026500000037T1069.1889683798881 14.780265000000384Q1070.2189683798883 14.780265000000384 1070.8589683798882 15.42026500000037T1071.498968379888 17.090265000000386V31.640265000000397H1094.6689683798882V17.090265000000386Q1094.6689683798882 16.060265000000413 1095.3289683798885 15.42026500000037Q1095.9989683798885 14.780265000000384 1096.978968379888 14.780265000000384Q1097.998968379888 14.780265000000384 1098.6389683798884 15.42026500000037T1099.2789683798883 17.090265000000386V50.750265000000354Q1099.2789683798883 51.73026500000037 1098.6389683798884 52.39026500000034T1096.978968379888 53.050265000000365Q1095.998968379888 53.050265000000365 1095.3289683798885 52.39026500000034Q1094.6689683798882 51.730265000000315 1094.6689683798882 50.750265000000354V35.710265000000334H1071.498968379888V50.750265000000354Q1071.498968379888 51.73026500000037 1070.8589683798882 52.39026500000034T1069.1889683798881 53.050265000000365M1124.8089683798885 53.840265000000386Q1120.1989683798884 53.840265000000386 1116.6489683798882 52.10026500000038T1111.0889683798882 47.300265000000365Q1109.0789683798885 44.23026500000037 1109.0789683798885 40.310265000000356V17.090265000000386Q1109.0789683798885 16.110265000000368 1109.7389683798883 15.4502650000004Q1110.3989683798882 14.780265000000384 1111.3789683798882 14.780265000000384Q1112.4089683798884 14.780265000000384 1113.0489683798883 15.4502650000004Q1113.6789683798884 16.110265000000425 1113.6789683798884 17.090265000000386V40.31026500000041Q1113.6789683798884 43.06026500000041 1115.1089683798882 45.1402650000004Q1116.5289683798883 47.22026500000038 1119.0489683798883 48.42026500000037T1124.8089683798885 49.62026500000036Q1127.9389683798881 49.62026500000036 1130.3889683798884 48.42026500000037T1134.2389683798883 45.1402650000004T1135.6389683798884 40.31026500000041V17.090265000000386Q1135.6389683798884 16.110265000000368 1136.2989683798883 15.4502650000004Q1136.9589683798881 14.780265000000384 1137.9389683798881 14.780265000000384Q1138.9689683798883 14.780265000000384 1139.5789683798885 15.4502650000004Q1140.1889683798881 16.110265000000425 1140.1889683798881 17.090265000000386V40.31026500000041Q1140.1889683798881 44.23026500000043 1138.228968379888 47.30026500000042Q1136.268968379888 50.360265000000425 1132.788968379888 52.100265000000434Q1129.3189683798882 53.84026500000044 1124.808968379888 53.84026500000044M1165.0289683798883 53.05026500000042H1152.3789683798882Q1151.3589683798882 53.05026500000042 1150.6689683798882 52.3902650000004T1149.978968379888 50.75026500000041V17.090265000000386Q1149.978968379888 16.060265000000413 1150.6489683798882 15.42026500000037Q1151.308968379888 14.780265000000384 1152.288968379888 14.780265000000384H1164.098968379888Q1167.228968379888 14.780265000000384 1169.7089683798881 16.060265000000356Q1172.178968379888 17.330265000000338 1173.598968379888 19.59026500000033Q1175.018968379888 21.84026500000033 1175.018968379888 24.780265000000327Q1175.018968379888 27.280265000000327 1173.678968379888 29.260265000000345Q1172.328968379888 31.250265000000354 1170.0689683798878 32.33026500000034Q1173.308968379888 33.16026500000032 1175.288968379888 35.510265000000345Q1177.2789683798878 37.86026500000037 1177.2789683798878 41.59026500000033Q1177.2789683798878 44.970265000000325 1175.7089683798881 47.54026500000032T1171.368968379888 51.58026500000034T1165.0289683798878 53.050265000000365M1154.5889683798878 34.92026500000037V48.74026500000036H1165.0289683798878Q1167.328968379888 48.74026500000036 1169.0689683798878 47.91026500000038T1171.808968379888 45.48026500000037Q1172.8189683798878 43.8902650000004 1172.8189683798878 41.590265000000386Q1172.8189683798878 39.43026500000036 1171.808968379888 37.96026500000039Q1170.808968379888 36.49026500000036 1169.0689683798878 35.71026500000039Q1167.328968379888 34.92026500000037 1165.0289683798878 34.92026500000037ZM1154.5889683798878 19.100265000000377V30.610265000000368H1164.098968379888Q1166.9389683798877 30.610265000000368 1168.7789683798878 29.12026500000036Q1170.6089683798878 27.62026500000036 1170.6089683798878 24.780265000000384T1168.7789683798878 20.520265000000393Q1166.9389683798877 19.100265000000377 1164.098968379888 19.100265000000377Z " paint-order="stroke"></path><rect width="332.779" height="28.25" x="458.2289683798883" y="-360.624735" fill="none" rx="0" ry="0" transform="translate(411.04 428.57)"></rect><path fill="#76309b" d="M872.2389683798882 89.42026500000003Q871.8389683798881 89.42026500000003 871.5489683798882 89.14026500000006Q871.2589683798882 88.85026500000004 871.2589683798882 88.45026500000006V70.87026500000007Q871.2589683798882 70.45026500000006 871.5489683798882 70.17026500000009Q871.8389683798881 69.9002650000001 872.2389683798882 69.9002650000001Q872.8389683798881 69.9002650000001 873.1089683798882 70.4002650000001L881.5389683798882 87.1502650000001H880.6889683798881L888.9589683798881 70.4002650000001Q889.2589683798882 69.9002650000001 889.8389683798881 69.9002650000001Q890.2389683798881 69.9002650000001 890.5089683798882 70.17026500000009Q890.7889683798882 70.45026500000006 890.7889683798882 70.87026500000007V88.45026500000006Q890.7889683798882 88.85026500000004 890.5089683798882 89.14026500000006Q890.2389683798882 89.42026500000003 889.8389683798881 89.42026500000003Q889.4089683798882 89.42026500000003 889.1289683798882 89.14026500000006Q888.8389683798881 88.85026500000004 888.8389683798881 88.45026500000006V73.40026499999999L889.2589683798882 73.42026499999997L881.8889683798882 88.50026499999996Q881.6089683798882 88.97026499999998 881.0389683798882 88.97026499999998Q880.4089683798882 88.97026499999998 880.1389683798881 88.37026499999996L872.7089683798881 73.52026499999994L873.2089683798881 73.40026499999993V88.45026499999994Q873.2089683798881 88.85026499999992 872.9289683798881 89.14026499999994Q872.6389683798881 89.42026499999992 872.2389683798881 89.42026499999992M901.5689683798881 89.55026499999991Q899.6489683798881 89.55026499999991 898.1189683798881 88.64026499999989Q896.5989683798881 87.72026499999987 895.7089683798881 86.15026499999988Q894.8189683798881 84.57026499999989 894.8189683798881 82.60026499999987Q894.8189683798881 80.60026499999987 895.7389683798881 79.02026499999988Q896.6489683798882 77.45026499999989 898.2189683798881 76.54026499999986Q899.7989683798882 75.62026499999985 901.7689683798882 75.62026499999985Q903.7489683798882 75.62026499999985 905.3089683798881 76.54026499999986Q906.8689683798882 77.45026499999989 907.7889683798882 79.02026499999988Q908.6989683798882 80.60026499999987 908.7189683798882 82.60026499999987L907.9489683798882 83.20026499999989Q907.9489683798882 85.0002649999999 907.1089683798882 86.4402649999999Q906.2689683798883 87.8702649999999 904.8389683798882 88.71026499999988Q903.3989683798883 89.55026499999985 901.5689683798882 89.55026499999985M901.7689683798883 87.80026499999985Q903.2189683798882 87.80026499999985 904.3589683798882 87.12026499999985Q905.4989683798882 86.45026499999983 906.1589683798883 85.26026499999983T906.8189683798882 82.60026499999981Q906.8189683798882 81.10026499999981 906.1589683798883 79.9202649999998Q905.4989683798882 78.75026499999979 904.3589683798882 78.06026499999979T901.7689683798883 77.37026499999979Q900.3489683798882 77.37026499999979 899.1989683798882 78.06026499999979T897.3689683798883 79.9202649999998Q896.6989683798882 81.10026499999981 896.6989683798882 82.60026499999981Q896.6989683798882 84.07026499999984 897.3689683798883 85.26026499999983Q898.0489683798883 86.45026499999983 899.1989683798882 87.12026499999985Q900.3489683798882 87.80026499999985 901.7689683798883 87.80026499999985M907.7489683798883 89.42026499999986Q907.3189683798882 89.42026499999986 907.0489683798883 89.16026499999987Q906.7689683798883 88.90026499999988 906.7689683798883 88.47026499999987V84.20026499999989L907.2489683798883 82.22026499999987L908.7189683798883 82.60026499999987V88.47026499999987Q908.7189683798883 88.90026499999988 908.4489683798884 89.16026499999987Q908.1689683798884 89.42026499999986 907.7489683798884 89.42026499999986M924.1989683798884 89.42026499999986Q923.7689683798884 89.42026499999986 923.4989683798884 89.15026499999988Q923.2189683798885 88.8702649999999 923.2189683798885 88.47026499999987V81.97026499999987Q923.2189683798885 80.42026499999986 922.6389683798884 79.42026499999986Q922.0489683798885 78.42026499999986 921.0389683798884 77.92026499999986Q920.0189683798884 77.42026499999986 918.7489683798884 77.42026499999986Q917.5189683798884 77.42026499999986 916.5389683798884 77.90026499999988Q915.5489683798884 78.3702649999999 914.9689683798885 79.20026499999989Q914.3989683798884 80.02026499999988 914.3989683798884 81.07026499999989H913.0189683798884Q913.0689683798885 79.5002649999999 913.8689683798884 78.26026499999989T915.9989683798884 76.3102649999999Q917.3189683798885 75.60026499999992 918.9489683798885 75.60026499999992Q920.7189683798885 75.60026499999992 922.1189683798884 76.34026499999993Q923.5189683798884 77.07026499999995 924.3389683798885 78.50026499999996Q925.1489683798885 79.92026499999997 925.1489683798885 81.97026499999998V88.47026499999998Q925.1489683798885 88.87026499999996 924.8689683798885 89.15026499999999Q924.5989683798886 89.42026499999997 924.1989683798885 89.42026499999997M913.4489683798885 89.42026499999997Q912.9989683798885 89.42026499999997 912.7389683798885 89.16026499999998Q912.4689683798886 88.90026499999999 912.4689683798886 88.47026499999998V76.72026499999998Q912.4689683798886 76.270265 912.7389683798885 76.010265Q912.9989683798885 75.75026500000001 913.4489683798885 75.75026500000001Q913.8689683798885 75.75026500000001 914.1389683798885 76.010265Q914.3989683798885 76.270265 914.3989683798885 76.72026499999998V88.47026499999998Q914.3989683798885 88.90026499999999 914.1389683798885 89.16026499999998Q913.8689683798885 89.42026499999997 913.4489683798885 89.42026499999997M935.4189683798885 89.55026499999997Q933.4989683798884 89.55026499999997 931.9689683798885 88.64026499999994Q930.4489683798885 87.72026499999993 929.5589683798885 86.15026499999993Q928.6689683798885 84.57026499999995 928.6689683798885 82.60026499999992Q928.6689683798885 80.60026499999992 929.5889683798885 79.02026499999994Q930.4989683798885 77.45026499999994 932.0689683798885 76.54026499999992Q933.6489683798885 75.6202649999999 935.6189683798885 75.6202649999999Q937.5989683798886 75.6202649999999 939.1589683798885 76.54026499999992Q940.7189683798886 77.45026499999994 941.6389683798885 79.02026499999994Q942.5489683798886 80.60026499999992 942.5689683798886 82.60026499999992L941.7989683798886 83.20026499999994Q941.7989683798886 85.00026499999996 940.9589683798886 86.44026499999995Q940.1189683798887 87.87026499999996 938.6889683798886 88.71026499999994Q937.2489683798887 89.55026499999991 935.4189683798886 89.55026499999991M935.6189683798887 87.80026499999991Q937.0689683798886 87.80026499999991 938.2089683798886 87.1202649999999Q939.3489683798886 86.45026499999989 940.0089683798886 85.26026499999989T940.6689683798886 82.60026499999987Q940.6689683798886 81.10026499999987 940.0089683798886 79.92026499999986Q939.3489683798886 78.75026499999984 938.2089683798886 78.06026499999984T935.6189683798887 77.37026499999985Q934.1989683798886 77.37026499999985 933.0489683798886 78.06026499999984T931.2189683798887 79.92026499999986Q930.5489683798886 81.10026499999987 930.5489683798886 82.60026499999987Q930.5489683798886 84.07026499999989 931.2189683798887 85.26026499999989Q931.8989683798886 86.45026499999989 933.0489683798886 87.1202649999999Q934.1989683798886 87.80026499999991 935.6189683798887 87.80026499999991M941.5989683798887 89.42026499999992Q941.1689683798886 89.42026499999992 940.8989683798886 89.16026499999992Q940.6189683798887 88.90026499999993 940.6189683798887 88.47026499999993V84.20026499999994L941.0989683798887 82.22026499999993L942.5689683798887 82.60026499999992V88.47026499999993Q942.5689683798887 88.90026499999993 942.2989683798887 89.16026499999992Q942.0189683798887 89.42026499999992 941.5989683798888 89.42026499999992M952.3489683798888 89.55026499999991Q950.3689683798888 89.55026499999991 948.8489683798888 88.66026499999992Q947.3189683798888 87.77026499999994 946.4589683798888 86.20026499999994Q945.5989683798888 84.62026499999996 945.5989683798888 82.60026499999992Q945.5989683798888 80.55026499999991 946.4989683798888 78.97026499999993Q947.3989683798887 77.40026499999993 948.9689683798888 76.51026499999995Q950.5489683798887 75.62026499999996 952.5489683798887 75.62026499999996Q954.5689683798887 75.62026499999996 956.1389683798888 76.51026499999995Q957.6989683798887 77.40026499999993 958.5889683798887 78.97026499999993Q959.4689683798887 80.55026499999991 959.4989683798888 82.60026499999992L958.3689683798888 83.20026499999994Q958.3689683798888 85.05026499999997 957.5989683798888 86.49026499999997Q956.8189683798888 87.92026499999997 955.4589683798888 88.74026499999997Q954.0989683798888 89.55026499999997 952.3489683798888 89.55026499999997M952.5989683798888 94.82026499999995Q950.6189683798888 94.82026499999995 949.1189683798888 94.09026499999993Q947.6189683798888 93.35026499999992 946.6489683798887 92.07026499999995Q946.3689683798888 91.77026499999994 946.4089683798887 91.42026499999997T946.7689683798887 90.85026499999998Q947.0989683798887 90.62026499999996 947.4989683798888 90.700265Q947.8989683798887 90.770265 948.1189683798888 91.070265Q948.8489683798888 91.97026499999998 949.9889683798888 92.520265Q951.1189683798888 93.070265 952.6189683798888 93.070265Q954.0189683798887 93.070265 955.1489683798887 92.40026499999999Q956.2689683798887 91.72026499999998 956.9389683798887 90.50026500000001Q957.5989683798888 89.270265 957.5989683798888 87.62026500000002V83.820265L958.3189683798888 82.37026500000002L959.4989683798888 82.60026500000004V87.70026500000006Q959.4989683798888 89.72026500000004 958.5989683798888 91.34026500000004Q957.6989683798888 92.95026500000006 956.1489683798889 93.89026500000006Q954.5989683798888 94.82026500000006 952.5989683798888 94.82026500000006M952.5489683798888 87.80026500000008Q954.0189683798889 87.80026500000008 955.1589683798888 87.14026500000006Q956.2989683798888 86.47026500000004 956.9489683798888 85.30026500000008Q957.5989683798888 84.12026500000007 957.5989683798888 82.60026500000009Q957.5989683798888 81.07026500000012 956.9489683798888 79.89026500000011Q956.2989683798888 78.70026500000012 955.1589683798888 78.04026500000009Q954.0189683798889 77.37026500000007 952.5489683798888 77.37026500000007Q951.0689683798888 77.37026500000007 949.9189683798888 78.04026500000009Q948.7689683798889 78.70026500000012 948.1189683798888 79.89026500000011Q947.4689683798888 81.07026500000012 947.4689683798888 82.60026500000009Q947.4689683798888 84.12026500000007 948.1189683798888 85.30026500000008Q948.7689683798887 86.4702650000001 949.9189683798888 87.14026500000006Q951.0689683798888 87.80026500000008 952.5489683798888 87.80026500000008M969.4489683798888 89.54026500000009Q967.4189683798888 89.54026500000009 965.8589683798888 88.6502650000001T963.4089683798888 86.19026500000012Q962.5189683798889 84.61026500000014 962.5189683798889 82.5902650000001Q962.5189683798889 80.54026500000009 963.3589683798888 78.98026500000009Q964.1989683798888 77.4102650000001 965.6689683798888 76.51026500000006Q967.1489683798889 75.61026500000008 969.0689683798888 75.61026500000008Q970.9689683798888 75.61026500000008 972.3889683798888 76.48026500000009Q973.7989683798888 77.3402650000001 974.5689683798888 78.86026500000008Q975.3489683798888 80.39026500000006 975.3489683798888 82.3402650000001Q975.3489683798888 82.74026500000008 975.0989683798888 82.98026500000009Q974.8489683798888 83.2102650000001 974.4489683798888 83.2102650000001H963.8189683798881V81.61026500000008H974.6489683798882L973.5689683798881 82.39026500000006Q973.5989683798881 80.94026500000007 973.0489683798882 79.79026500000003T971.4889683798882 77.99026500000002Q970.4689683798882 77.34026500000004 969.0689683798881 77.34026500000004Q967.6489683798882 77.34026500000004 966.5689683798881 78.01026500000006Q965.4989683798882 78.69026500000007 964.9089683798882 79.88026500000007Q964.3189683798881 81.06026500000007 964.3189683798881 82.59026500000004Q964.3189683798881 84.11026500000003 964.9889683798882 85.29026500000003Q965.6489683798882 86.46026500000005 966.7989683798882 87.14026500000006Q967.9489683798881 87.81026500000007 969.4489683798881 87.81026500000007Q970.3489683798881 87.81026500000007 971.2589683798882 87.50026500000007T972.7189683798881 86.71026500000005Q972.9989683798881 86.49026500000002 973.3489683798881 86.48026500000003Q973.6989683798881 86.46026500000005 973.9489683798881 86.66026500000004Q974.2689683798882 86.96026500000005 974.2889683798882 87.31026500000002Q974.2989683798882 87.66026500000004 973.9989683798881 87.91026500000004Q973.1689683798882 88.61026500000003 971.8989683798881 89.08026500000005Q970.6189683798881 89.54026500000003 969.4489683798881 89.54026500000003M979.0489683798882 89.820265Q978.4489683798881 89.820265 978.0189683798882 89.40026499999999Q977.5989683798881 88.97026499999998 977.5989683798881 88.37026500000002Q977.5989683798881 87.75026500000001 978.0389683798882 87.320265Q978.4689683798881 86.90026499999999 979.0489683798882 86.90026499999999Q979.6489683798882 86.90026499999999 980.0689683798881 87.34026499999999Q980.4989683798881 87.770265 980.4989683798881 88.37026499999996Q980.4989683798881 88.95026499999994 980.0889683798881 89.39026499999994Q979.668968379888 89.82026499999995 979.048968379888 89.82026499999995M997.2489683798881 89.42026499999997Q996.8489683798881 89.42026499999997 996.558968379888 89.140265Q996.2689683798881 88.85026499999998 996.2689683798881 88.450265V69.90026499999999H998.218968379888V88.450265Q998.218968379888 88.85026499999998 997.948968379888 89.140265Q997.668968379888 89.42026499999997 997.2489683798881 89.42026499999997M1004.168968379888 71.67026499999997H990.3489683798881Q989.9489683798881 71.67026499999997 989.6989683798881 71.42026499999997T989.4489683798881 70.80026499999997Q989.4489683798881 70.40026499999999 989.6989683798881 70.15026499999999T990.3489683798881 69.90026499999999H1004.168968379888Q1004.568968379888 69.90026499999999 1004.818968379888 70.15026499999999T1005.068968379888 70.80026499999997Q1005.068968379888 71.17026499999997 1004.818968379888 71.42026499999997T1004.168968379888 71.67026499999997M1009.5989683798881 81.00026499999996H1008.4989683798881Q1008.568968379888 79.45026499999994 1009.308968379888 78.22026499999998Q1010.048968379888 77.00026499999996 1011.2389683798881 76.30026499999997Q1012.418968379888 75.60026499999998 1013.8689683798881 75.60026499999998Q1015.0189683798881 75.60026499999998 1015.6489683798881 75.92026499999997Q1016.2689683798881 76.25026499999996 1016.1189683798881 76.87026499999996Q1016.0189683798881 77.25026499999996 1015.788968379888 77.37026499999996Q1015.548968379888 77.50026499999996 1015.2089683798881 77.47026499999998Q1014.8689683798881 77.450265 1014.4489683798881 77.42026499999997Q1013.0489683798882 77.30026499999997 1011.9589683798881 77.71026499999999T1010.2389683798881 78.97026499999998Q1009.5989683798881 79.820265 1009.5989683798881 81.00026499999996M1008.6489683798881 89.42026499999997Q1008.1989683798881 89.42026499999997 1007.9489683798881 89.17026499999997T1007.6989683798881 88.47026499999998V76.700265Q1007.6989683798881 76.25026500000001 1007.9489683798881 76.00026500000001T1008.6489683798881 75.75026500000001T1009.3489683798881 76.00026500000001T1009.5989683798881 76.700265V88.47026499999998Q1009.5989683798881 88.92026499999997 1009.3489683798881 89.17026499999997T1008.6489683798881 89.42026499999997M1025.1689683798882 89.55026499999997Q1023.2489683798881 89.55026499999997 1021.7189683798881 88.64026499999994Q1020.1989683798881 87.72026499999993 1019.308968379888 86.15026499999993Q1018.418968379888 84.57026499999995 1018.418968379888 82.60026499999992Q1018.418968379888 80.60026499999992 1019.3389683798881 79.02026499999994Q1020.2489683798881 77.45026499999994 1021.8189683798881 76.54026499999992Q1023.3989683798881 75.6202649999999 1025.368968379888 75.6202649999999Q1027.348968379888 75.6202649999999 1028.9089683798884 76.54026499999992Q1030.4689683798883 77.45026499999994 1031.3889683798884 79.02026499999994Q1032.2989683798883 80.60026499999992 1032.3189683798882 82.60026499999992L1031.5489683798883 83.20026499999994Q1031.5489683798883 85.00026499999996 1030.7089683798881 86.44026499999995Q1029.8689683798884 87.87026499999996 1028.4389683798881 88.71026499999994Q1026.998968379888 89.55026499999991 1025.1689683798882 89.55026499999991M1025.3689683798884 87.80026499999991Q1026.8189683798882 87.80026499999991 1027.9589683798881 87.1202649999999Q1029.0989683798884 86.45026499999989 1029.7589683798883 85.26026499999989T1030.4189683798882 82.60026499999987Q1030.4189683798882 81.10026499999987 1029.7589683798883 79.92026499999986Q1029.0989683798884 78.75026499999984 1027.9589683798881 78.06026499999984T1025.3689683798884 77.37026499999985Q1023.9489683798882 77.37026499999985 1022.7989683798883 78.06026499999984T1020.9689683798882 79.92026499999986Q1020.2989683798883 81.10026499999987 1020.2989683798883 82.60026499999987Q1020.2989683798883 84.07026499999989 1020.9689683798882 85.26026499999989Q1021.6489683798883 86.45026499999989 1022.7989683798883 87.1202649999999Q1023.9489683798882 87.80026499999991 1025.3689683798884 87.80026499999991M1031.3489683798884 89.42026499999992Q1030.9189683798882 89.42026499999992 1030.6489683798882 89.16026499999992Q1030.3689683798884 88.90026499999993 1030.3689683798884 88.47026499999993V84.20026499999994L1030.8489683798884 82.22026499999993L1032.3189683798882 82.60026499999992V88.47026499999993Q1032.3189683798882 88.90026499999993 1032.0489683798883 89.16026499999992Q1031.7689683798885 89.42026499999992 1031.3489683798884 89.42026499999992M1042.1689683798886 89.55026499999991Q1040.1989683798884 89.55026499999991 1038.6589683798884 88.64026499999989Q1037.1189683798884 87.72026499999987 1036.2389683798883 86.15026499999988Q1035.3489683798884 84.57026499999989 1035.3489683798884 82.60026499999987Q1035.3489683798884 80.60026499999987 1036.1989683798884 79.02026499999988Q1037.0489683798883 77.45026499999989 1038.5189683798885 76.54026499999986Q1039.9989683798885 75.62026499999985 1041.9189683798886 75.62026499999985Q1043.4489683798884 75.62026499999985 1044.7389683798883 76.22026499999987Q1046.0189683798885 76.82026499999989 1046.9989683798885 78.02026499999988Q1047.2689683798885 78.32026499999989 1047.1989683798884 78.66026499999987Q1047.1189683798884 79.00026499999984 1046.7689683798885 79.25026499999984Q1046.4989683798885 79.45026499999983 1046.1589683798884 79.39026499999983Q1045.8189683798882 79.32026499999984 1045.5689683798882 79.02026499999982Q1044.1189683798884 77.37026499999985 1041.9189683798886 77.37026499999985Q1040.5189683798885 77.37026499999985 1039.4589683798886 78.05026499999985Q1038.3989683798886 78.72026499999987 1037.8089683798885 79.90026499999988Q1037.2189683798883 81.07026499999989 1037.2189683798883 82.60026499999987Q1037.2189683798883 84.10026499999987 1037.8489683798884 85.27026499999988Q1038.4689683798883 86.45026499999989 1039.5989683798884 87.1202649999999Q1040.7189683798883 87.80026499999991 1042.1689683798886 87.80026499999991Q1043.1489683798886 87.80026499999991 1043.9589683798886 87.54026499999992Q1044.7689683798885 87.27026499999994 1045.3989683798886 86.72026499999993Q1045.6989683798884 86.47026499999993 1046.0189683798885 86.45026499999994Q1046.3489683798884 86.42026499999997 1046.6189683798884 86.65026499999993Q1046.9189683798886 86.92026499999992 1046.9589683798886 87.27026499999994T1046.7189683798883 87.87026499999996Q1044.8989683798886 89.55026499999997 1042.1689683798886 89.55026499999997M1061.0689683798882 77.12026499999996L1052.5189683798885 84.85026499999998L1051.3489683798884 83.570265L1059.8989683798886 75.85026499999998Q1060.1989683798884 75.570265 1060.5189683798885 75.59026499999999Q1060.8489683798884 75.60026499999998 1061.1189683798884 75.90026499999999Q1061.3989683798886 76.200265 1061.3889683798884 76.54026499999998Q1061.3689683798884 76.87026499999996 1061.0689683798882 77.12026499999996M1051.8989683798886 89.42026499999997Q1051.4689683798883 89.42026499999997 1051.2089683798886 89.16026499999998T1050.9489683798884 88.47026499999998V70.85026499999998Q1050.9489683798884 70.42026499999997 1051.2089683798886 70.16026499999998T1051.8989683798886 69.90026499999999Q1052.3189683798882 69.90026499999999 1052.5889683798882 70.16026499999998Q1052.8489683798884 70.42026499999997 1052.8489683798884 70.85026499999998V88.47026499999998Q1052.8489683798884 88.90026499999999 1052.5889683798882 89.16026499999998Q1052.3189683798882 89.42026499999997 1051.8989683798886 89.42026499999997M1061.1489683798886 89.30026499999997Q1060.8189683798882 89.57026499999995 1060.4689683798883 89.54026499999998Q1060.1189683798884 89.50026499999996 1059.8689683798884 89.17026499999997L1054.2989683798883 82.32026499999995L1055.6489683798886 81.12026499999996L1061.2689683798885 88.05026499999997Q1061.5189683798885 88.35026499999998 1061.4989683798885 88.69026499999995Q1061.4689683798883 89.02026499999994 1061.1489683798886 89.30026499999997M1065.6989683798884 89.82026499999995Q1065.0989683798884 89.82026499999995 1064.6689683798886 89.40026499999993Q1064.2489683798885 88.97026499999993 1064.2489683798885 88.37026499999996Q1064.2489683798885 87.75026499999996 1064.6889683798886 87.32026499999995Q1065.1189683798884 86.90026499999993 1065.6989683798884 86.90026499999993Q1066.2989683798883 86.90026499999993 1066.7189683798883 87.34026499999993Q1067.1489683798886 87.77026499999994 1067.1489683798886 88.3702649999999Q1067.1489683798886 88.95026499999989 1066.7389683798883 89.39026499999989Q1066.3189683798882 89.82026499999989 1065.6989683798884 89.82026499999989M1083.6889683798886 89.42026499999992H1079.1889683798886Q1078.7589683798883 89.42026499999992 1078.4889683798883 89.15026499999993Q1078.2089683798886 88.87026499999996 1078.2089683798886 88.45026499999994V70.87026499999996Q1078.2089683798886 70.45026499999994 1078.4889683798883 70.17026499999997Q1078.7589683798883 69.90026499999999 1079.1889683798886 69.90026499999999H1083.6889683798886Q1085.8389683798882 69.90026499999999 1087.6289683798882 70.61026499999997Q1089.4089683798884 71.32026499999995 1090.7089683798886 72.64026499999994Q1092.0089683798883 73.95026499999994 1092.7289683798886 75.72026499999993Q1093.4389683798881 77.5002649999999 1093.4389683798881 79.65026499999993T1092.7289683798886 83.59026499999993Q1092.0089683798883 85.3702649999999 1090.7089683798886 86.69026499999995Q1089.4089683798884 88.00026499999996 1087.6289683798882 88.71026499999994Q1085.8389683798882 89.42026499999992 1083.6889683798886 89.42026499999992M1080.1589683798884 71.65026499999993V87.67026499999992H1083.6889683798886Q1085.9889683798883 87.67026499999992 1087.7489683798885 86.64026499999994Q1089.5089683798883 85.60026499999992 1090.5089683798883 83.79026499999992Q1091.5089683798883 81.97026499999993 1091.5089683798883 79.65026499999993Q1091.5089683798883 77.32026499999995 1090.5089683798883 75.51026499999995T1087.7489683798885 72.67026499999997Q1085.9889683798883 71.65026499999999 1083.6889683798886 71.65026499999999ZM1103.4189683798886 89.54026499999992Q1101.3989683798886 89.54026499999992 1099.8389683798882 88.65026499999993Q1098.2689683798885 87.76026499999995 1097.3889683798884 86.19026499999995Q1096.4989683798885 84.61026499999997 1096.4989683798885 82.59026499999993Q1096.4989683798885 80.54026499999992 1097.3389683798882 78.98026499999992Q1098.1689683798886 77.41026499999992 1099.6489683798886 76.51026499999989Q1101.1189683798884 75.61026499999991 1103.0489683798883 75.61026499999991Q1104.9489683798884 75.61026499999991 1106.3589683798882 76.48026499999992Q1107.7689683798885 77.34026499999993 1108.5489683798883 78.86026499999991Q1109.3189683798882 80.39026499999989 1109.3189683798882 82.34026499999993Q1109.3189683798882 82.74026499999991 1109.0689683798882 82.98026499999992Q1108.8189683798882 83.21026499999994 1108.4189683798886 83.21026499999994H1097.7989683798883V81.61026499999991H1108.6189683798884L1107.5489683798883 82.39026499999989Q1107.5689683798882 80.9402649999999 1107.018968379888 79.79026499999986T1105.4589683798881 77.99026499999985T1103.0489683798883 77.34026499999987Q1101.6189683798884 77.34026499999987 1100.5489683798883 78.01026499999989Q1099.4689683798883 78.6902649999999 1098.8889683798884 79.8802649999999Q1098.2989683798883 81.0602649999999 1098.2989683798883 82.59026499999987Q1098.2989683798883 84.11026499999986 1098.9589683798881 85.29026499999986Q1099.6189683798884 86.46026499999988 1100.768968379888 87.14026499999989Q1101.9189683798882 87.8102649999999 1103.4189683798882 87.8102649999999Q1104.3189683798882 87.8102649999999 1105.2389683798883 87.5002649999999Q1106.1489683798882 87.1902649999999 1106.6989683798884 86.71026499999988Q1106.9689683798883 86.49026499999985 1107.3189683798882 86.48026499999986Q1107.6689683798882 86.46026499999988 1107.9189683798882 86.66026499999987Q1108.248968379888 86.96026499999988 1108.2589683798883 87.31026499999984T1107.9689683798883 87.91026499999987Q1107.1489683798882 88.61026499999986 1105.868968379888 89.08026499999988Q1104.598968379888 89.54026499999986 1103.4189683798882 89.54026499999986M1115.848968379888 89.42026499999986H1115.518968379888Q1114.518968379888 89.42026499999986 1113.7389683798883 88.87026499999985Q1112.9489683798884 88.32026499999984 1112.5089683798883 87.35026499999987Q1112.0689683798882 86.37026499999985 1112.0689683798882 85.10026499999987V70.85026499999987Q1112.0689683798882 70.42026499999986 1112.3389683798882 70.16026499999987Q1112.598968379888 69.90026499999988 1113.018968379888 69.90026499999988Q1113.4489683798884 69.90026499999988 1113.7089683798881 70.16026499999987T1113.9689683798883 70.85026499999987V85.10026499999987Q1113.9689683798883 86.17026499999986 1114.4089683798884 86.85026499999987Q1114.848968379888 87.52026499999988 1115.518968379888 87.52026499999988H1116.1489683798882Q1116.518968379888 87.52026499999988 1116.748968379888 87.79026499999986Q1116.9689683798883 88.05026499999985 1116.9689683798883 88.47026499999987Q1116.9689683798883 88.90026499999988 1116.6589683798884 89.16026499999987T1115.8489683798884 89.42026499999986M1120.9889683798883 89.42026499999986Q1120.538968379888 89.42026499999986 1120.2789683798883 89.16026499999987Q1120.0089683798883 88.90026499999988 1120.0089683798883 88.45026499999989V76.72026499999987Q1120.0089683798883 76.27026499999988 1120.2789683798883 76.01026499999989Q1120.538968379888 75.7502649999999 1120.9889683798883 75.7502649999999Q1121.4089683798884 75.7502649999999 1121.6789683798884 76.01026499999989Q1121.9389683798881 76.27026499999988 1121.9389683798881 76.72026499999987V88.45026499999989Q1121.9389683798881 88.90026499999988 1121.6789683798884 89.16026499999987Q1121.4089683798884 89.42026499999986 1120.9889683798883 89.42026499999986M1120.9589683798881 73.15026499999988Q1120.4089683798884 73.15026499999988 1120.0089683798883 72.7502649999999T1119.6089683798882 71.77026499999988Q1119.6089683798882 71.15026499999988 1120.0289683798883 70.79026499999986Q1120.4389683798881 70.42026499999986 1120.9889683798883 70.42026499999986Q1121.5089683798883 70.42026499999986 1121.9289683798884 70.79026499999986Q1122.3389683798882 71.15026499999988 1122.3389683798882 71.77026499999988Q1122.3389683798882 72.35026499999987 1121.9389683798881 72.7502649999999T1120.9589683798881 73.15026499999988M1131.5189683798885 89.42026499999986Q1130.9189683798882 89.42026499999986 1130.6189683798884 88.77026499999988L1125.0689683798882 77.0002649999999Q1124.9189683798882 76.67026499999992 1125.0489683798883 76.35026499999992Q1125.1689683798882 76.02026499999994 1125.5489683798883 75.85026499999992Q1125.8989683798882 75.67026499999992 1126.2189683798883 75.80026499999991Q1126.5489683798883 75.92026499999992 1126.7189683798883 76.2502649999999L1132.0489683798883 87.77026499999988H1131.0189683798885L1136.2689683798885 76.2502649999999Q1136.4189683798882 75.90026499999988 1136.7889683798885 75.79026499999992Q1137.1489683798886 75.67026499999992 1137.4989683798885 75.82026499999989Q1137.8489683798884 76.0002649999999 1137.9689683798883 76.34026499999987Q1138.0989683798884 76.67026499999986 1137.9489683798884 76.97026499999987L1132.4689683798883 88.77026499999988Q1132.1689683798886 89.42026499999986 1131.5189683798885 89.42026499999986M1146.8689683798884 89.54026499999986Q1144.8489683798884 89.54026499999986 1143.2889683798885 88.65026499999988Q1141.7189683798883 87.76026499999989 1140.8389683798882 86.1902649999999Q1139.9489683798884 84.61026499999991 1139.9489683798884 82.59026499999987Q1139.9489683798884 80.54026499999986 1140.7889683798885 78.98026499999986Q1141.6189683798884 77.41026499999987 1143.0989683798884 76.51026499999983Q1144.5689683798882 75.61026499999986 1146.4989683798885 75.61026499999986Q1148.3989683798882 75.61026499999986 1149.8089683798885 76.48026499999986Q1151.2189683798883 77.34026499999987 1151.9989683798885 78.86026499999986Q1152.7689683798885 80.39026499999983 1152.7689683798885 82.34026499999987Q1152.7689683798885 82.74026499999985 1152.5189683798885 82.98026499999986Q1152.2689683798885 83.21026499999988 1151.8689683798884 83.21026499999988H1141.2489683798885V81.61026499999986H1152.0689683798882L1150.9989683798885 82.39026499999983Q1151.0189683798885 80.94026499999984 1150.4689683798883 79.7902649999998T1148.9089683798884 77.9902649999998T1146.4989683798885 77.34026499999982Q1145.0689683798887 77.34026499999982 1143.9989683798885 78.01026499999983Q1142.9189683798886 78.69026499999984 1142.3389683798887 79.88026499999984Q1141.7489683798885 81.06026499999984 1141.7489683798885 82.59026499999982Q1141.7489683798885 84.1102649999998 1142.4089683798884 85.2902649999998Q1143.0689683798882 86.46026499999982 1144.2189683798883 87.14026499999983Q1145.3689683798884 87.81026499999984 1146.8689683798884 87.81026499999984Q1147.7689683798885 87.81026499999984 1148.6889683798886 87.50026499999984Q1149.5989683798884 87.19026499999984 1150.1489683798886 86.71026499999982Q1150.4189683798886 86.4902649999998 1150.7689683798885 86.4802649999998Q1151.1189683798884 86.46026499999982 1151.3689683798884 86.66026499999981Q1151.6989683798884 86.96026499999982 1151.7089683798886 87.31026499999979T1151.4189683798886 87.91026499999981Q1150.5989683798884 88.6102649999998 1149.3189683798887 89.08026499999983Q1148.0489683798887 89.5402649999998 1146.8689683798884 89.5402649999998M1157.9089683798884 81.00026499999979H1156.8089683798885Q1156.8889683798884 79.45026499999977 1157.6289683798886 78.22026499999981Q1158.3589683798887 77.00026499999979 1159.5489683798883 76.3002649999998T1162.1889683798886 75.60026499999981Q1163.3389683798882 75.60026499999981 1163.9589683798886 75.9202649999998Q1164.5889683798882 76.25026499999979 1164.4389683798886 76.87026499999979Q1164.3389683798882 77.25026499999979 1164.0989683798884 77.37026499999979Q1163.8589683798882 77.50026499999979 1163.5289683798883 77.47026499999981Q1163.1889683798881 77.45026499999983 1162.7589683798883 77.4202649999998Q1161.3589683798882 77.3002649999998 1160.2789683798883 77.71026499999982Q1159.1889683798881 78.12026499999985 1158.5489683798883 78.97026499999981T1157.9089683798884 81.00026499999979M1156.9589683798881 89.4202649999998Q1156.5089683798883 89.4202649999998 1156.2589683798883 89.1702649999998T1156.0089683798883 88.47026499999981V76.700265Q1156.0089683798883 76.25026500000001 1156.2589683798883 76.00026500000001T1156.9589683798881 75.75026500000001T1157.6589683798884 76.00026500000001T1157.9089683798884 76.700265V88.47026499999998Q1157.9089683798884 88.92026499999997 1157.6589683798884 89.17026499999997T1156.9589683798881 89.42026499999997M1167.9189683798882 89.82026499999995Q1167.3189683798882 89.82026499999995 1166.8989683798882 89.40026499999993Q1166.4689683798883 88.97026499999993 1166.4689683798883 88.37026499999996Q1166.4689683798883 87.75026499999996 1166.9089683798884 87.32026499999995Q1167.3489683798884 86.90026499999993 1167.9189683798886 86.90026499999993Q1168.5189683798885 86.90026499999993 1168.9489683798884 87.34026499999993Q1169.3689683798884 87.77026499999994 1169.3689683798884 88.3702649999999Q1169.3689683798884 88.95026499999989 1168.9589683798886 89.39026499999989Q1168.5489683798883 89.82026499999989 1167.9189683798886 89.82026499999989 " paint-order="stroke"></path><rect width="76.625" height="48.59" x="648.3716204970062" y="172.3649959013229" fill="none" rx="0" ry="0" transform="rotate(-45 572.828 -14.683)"></rect><path fill="#76309b" d="M798.8669683798881 77.24726500000003Q796.1829683798882 79.93126500000005 793.0519683798882 81.25826500000005Q789.9209683798882 82.58626500000003 786.6689683798882 82.54326500000008Q783.4239683798882 82.49326500000006 780.2929683798882 81.16626500000007Q777.1629683798882 79.83826500000009 774.4779683798881 77.15526500000004Q771.8229683798882 74.49926500000004 770.4949683798882 71.36826500000006Q769.1679683798882 68.2372650000001 769.1179683798881 64.99226500000009Q769.0679683798882 61.733265000000074 770.4029683798882 58.60926500000011Q771.7309683798882 55.47926500000011 774.4149683798881 52.79426500000011Q777.0699683798881 50.13926500000014 780.2009683798882 48.811265000000105Q783.3249683798881 47.4772650000001 786.5979683798881 47.51226500000013Q789.8639683798881 47.541265000000124 792.9949683798881 48.86826500000012T798.7819683798881 52.851265000000126Q801.4649683798881 55.53526500000015 802.7929683798881 58.666265000000124T804.1489683798881 65.06326500000011Q804.1779683798881 68.32926500000013 802.8499683798881 71.4602650000001T798.8669683798881 77.24726500000008M796.2399683798881 74.62026500000007Q798.284968379888 72.57526500000006 799.264968379888 70.13326500000005T800.2089683798881 65.12726500000008Q800.1799683798881 62.557265000000086 799.1149683798881 60.11526500000008Q798.0429683798881 57.6792650000001 795.9979683798881 55.63526500000006T791.5329683798881 52.53226500000005Q789.0969683798882 51.47426500000006 786.5199683798882 51.43826500000006Q783.9429683798882 51.38826500000005 781.514968379888 52.38326500000005Q779.0859683798881 53.37726500000008 777.0409683798881 55.42126500000006Q774.9969683798881 57.46626500000008 774.0029683798881 59.89526500000005Q773.0159683798881 62.31526500000007 773.072968379888 64.88526500000006Q773.1289683798881 67.44226500000008 774.1729683798881 69.89126500000009Q775.2099683798881 72.33426500000007 777.2539683798881 74.37826500000011T781.755968379888 77.47426500000012Q784.2129683798881 78.52426500000013 786.7609683798881 78.57426500000014Q789.3169683798881 78.61726500000015 791.7529683798881 77.64426500000013Q794.1949683798881 76.66426500000011 796.2399683798881 74.62026500000013M817.0989683798881 58.40326500000015Q816.4889683798881 59.01426500000014 815.6659683798881 59.01426500000014T814.230968379888 58.40426500000012L793.2589683798882 37.43026500000002Q792.6189683798882 36.79126500000001 792.6339683798882 35.98226500000004Q792.6479683798882 35.17226500000004 793.2589683798882 34.562265000000025Q793.9049683798881 33.91626500000001 794.6999683798882 33.91626500000001Q795.4879683798882 33.923265000000015 796.1269683798881 34.562265000000025L805.1939683798881 43.628265L819.6349683798882 29.187265000000025L810.5689683798881 20.120265000000018Q809.9289683798881 19.481265000000008 809.9439683798881 18.67226500000004Q809.9579683798881 17.862265000000036 810.5689683798881 17.252265000000023Q811.2149683798881 16.606265000000008 812.0099683798882 16.606265000000008T813.4439683798881 17.245265000000018L834.4179683798882 38.21826500000003Q835.0279683798882 38.828265000000044 835.0419683798881 39.63826500000005T834.4099683798881 41.094265000000064Q833.7999683798881 41.70426500000008 832.9759683798882 41.70426500000008Q832.1529683798882 41.70426500000008 831.5419683798881 41.094265000000064L822.1699683798881 31.72226500000005L807.7289683798882 46.163265000000024L817.1009683798882 55.53526500000004Q817.7109683798882 56.14526500000005 817.7329683798881 56.94826500000005Q817.7469683798881 57.75826500000005 817.1009683798882 58.40326500000003 " paint-order="stroke"></path><rect width="76.625" height="48.59" x="648.3716204970062" y="172.3649959013229" fill="none" rx="0" ry="0" transform="rotate(-45 572.828 -14.683)"></rect><path fill="#fff" d="M798.8669683798881 77.24726500000003Q796.1829683798882 79.93126500000005 793.0519683798882 81.25826500000005Q789.9209683798882 82.58626500000003 786.6689683798882 82.54326500000008Q783.4239683798882 82.49326500000006 780.2929683798882 81.16626500000007Q777.1629683798882 79.83826500000009 774.4779683798881 77.15526500000004Q771.8229683798882 74.49926500000004 770.4949683798882 71.36826500000006Q769.1679683798882 68.2372650000001 769.1179683798881 64.99226500000009Q769.0679683798882 61.733265000000074 770.4029683798882 58.60926500000011Q771.7309683798882 55.47926500000011 774.4149683798881 52.79426500000011Q777.0699683798881 50.13926500000014 780.2009683798882 48.811265000000105Q783.3249683798881 47.4772650000001 786.5979683798881 47.51226500000013Q789.8639683798881 47.541265000000124 792.9949683798881 48.86826500000012T798.7819683798881 52.851265000000126Q801.4649683798881 55.53526500000015 802.7929683798881 58.666265000000124T804.1489683798881 65.06326500000011Q804.1779683798881 68.32926500000013 802.8499683798881 71.4602650000001T798.8669683798881 77.24726500000008M796.2399683798881 74.62026500000007Q798.284968379888 72.57526500000006 799.264968379888 70.13326500000005T800.2089683798881 65.12726500000008Q800.1799683798881 62.557265000000086 799.1149683798881 60.11526500000008Q798.0429683798881 57.6792650000001 795.9979683798881 55.63526500000006T791.5329683798881 52.53226500000005Q789.0969683798882 51.47426500000006 786.5199683798882 51.43826500000006Q783.9429683798882 51.38826500000005 781.514968379888 52.38326500000005Q779.0859683798881 53.37726500000008 777.0409683798881 55.42126500000006Q774.9969683798881 57.46626500000008 774.0029683798881 59.89526500000005Q773.0159683798881 62.31526500000007 773.072968379888 64.88526500000006Q773.1289683798881 67.44226500000008 774.1729683798881 69.89126500000009Q775.2099683798881 72.33426500000007 777.2539683798881 74.37826500000011T781.755968379888 77.47426500000012Q784.2129683798881 78.52426500000013 786.7609683798881 78.57426500000014Q789.3169683798881 78.61726500000015 791.7529683798881 77.64426500000013Q794.1949683798881 76.66426500000011 796.2399683798881 74.62026500000013M817.0989683798881 58.40326500000015Q816.4889683798881 59.01426500000014 815.6659683798881 59.01426500000014T814.230968379888 58.40426500000012L793.2589683798882 37.43026500000002Q792.6189683798882 36.79126500000001 792.6339683798882 35.98226500000004Q792.6479683798882 35.17226500000004 793.2589683798882 34.562265000000025Q793.9049683798881 33.91626500000001 794.6999683798882 33.91626500000001Q795.4879683798882 33.923265000000015 796.1269683798881 34.562265000000025L805.1939683798881 43.628265L819.6349683798882 29.187265000000025L810.5689683798881 20.120265000000018Q809.9289683798881 19.481265000000008 809.9439683798881 18.67226500000004Q809.9579683798881 17.862265000000036 810.5689683798881 17.252265000000023Q811.2149683798881 16.606265000000008 812.0099683798882 16.606265000000008T813.4439683798881 17.245265000000018L834.4179683798882 38.21826500000003Q835.0279683798882 38.828265000000044 835.0419683798881 39.63826500000005T834.4099683798881 41.094265000000064Q833.7999683798881 41.70426500000008 832.9759683798882 41.70426500000008Q832.1529683798882 41.70426500000008 831.5419683798881 41.094265000000064L822.1699683798881 31.72226500000005L807.7289683798882 46.163265000000024L817.1009683798882 55.53526500000004Q817.7109683798882 56.14526500000005 817.7329683798881 56.94826500000005Q817.7469683798881 57.75826500000005 817.1009683798882 58.40326500000003 " paint-order="stroke"></path></g><rect width="557" height="107" x="721.5" y="0" id="space-saver" fill="transparent" stroke="transparent"></rect></g></svg>